<mxfile host="app.diagrams.net" modified="2023-05-11T22:00:05.441Z" agent="Mozilla/5.0 (Windows NT 10.0; Win64; x64; rv:112.0) Gecko/20100101 Firefox/112.0" etag="reG-KCKPL0R8wsA2-R0x" version="21.2.9" type="device">
  <diagram id="4078iwhWGoRj34AY_e26" name="PÃ¡gina-1">
    <mxGraphModel dx="1941" dy="727" grid="1" gridSize="10" guides="1" tooltips="1" connect="1" arrows="1" fold="1" page="1" pageScale="1" pageWidth="827" pageHeight="1169" math="0" shadow="0">
      <root>
        <mxCell id="0" />
        <mxCell id="1" parent="0" />
        <mxCell id="r-MxsmEUI5-oT3r44p7l-59" value="" style="rounded=1;whiteSpace=wrap;html=1;fontSize=20;strokeColor=none;fillColor=#ffe6cc;opacity=70;glass=0;shadow=0;" vertex="1" parent="1">
          <mxGeometry x="380" y="682" width="325" height="250" as="geometry" />
        </mxCell>
        <mxCell id="88983EZOAUHpk7LaGvqL-35" value="" style="rounded=1;whiteSpace=wrap;html=1;fontSize=20;strokeColor=#9673a6;fillColor=#e1d5e7;" parent="1" vertex="1">
          <mxGeometry x="-50" y="560" width="750" height="60" as="geometry" />
        </mxCell>
        <mxCell id="88983EZOAUHpk7LaGvqL-4" value="" style="sketch=0;pointerEvents=1;shadow=0;dashed=0;html=1;strokeColor=none;labelPosition=center;verticalLabelPosition=bottom;verticalAlign=top;outlineConnect=0;align=center;shape=mxgraph.office.concepts.folder;fillColor=#7FBA42;" parent="1" vertex="1">
          <mxGeometry x="-102.63" y="150" width="76" height="70" as="geometry" />
        </mxCell>
        <mxCell id="r-MxsmEUI5-oT3r44p7l-69" style="edgeStyle=orthogonalEdgeStyle;rounded=0;orthogonalLoop=1;jettySize=auto;html=1;entryX=0.464;entryY=0.215;entryDx=0;entryDy=0;entryPerimeter=0;" edge="1" parent="1" source="88983EZOAUHpk7LaGvqL-6" target="r-MxsmEUI5-oT3r44p7l-22">
          <mxGeometry relative="1" as="geometry" />
        </mxCell>
        <mxCell id="88983EZOAUHpk7LaGvqL-6" value="" style="sketch=0;pointerEvents=1;shadow=0;dashed=0;html=1;strokeColor=none;labelPosition=center;verticalLabelPosition=bottom;verticalAlign=top;outlineConnect=0;align=center;shape=mxgraph.office.concepts.folder;fillColor=#DA4026;" parent="1" vertex="1">
          <mxGeometry x="103.37" y="150" width="80" height="70" as="geometry" />
        </mxCell>
        <mxCell id="88983EZOAUHpk7LaGvqL-7" value="&lt;font size=&quot;1&quot; color=&quot;#009900&quot;&gt;&lt;b&gt;&lt;i style=&quot;font-size: 22px;&quot;&gt;PECL&lt;/i&gt;&lt;/b&gt;&lt;/font&gt;" style="text;html=1;strokeColor=none;fillColor=none;align=center;verticalAlign=middle;whiteSpace=wrap;rounded=0;" parent="1" vertex="1">
          <mxGeometry x="-134.63" y="100" width="140" height="40" as="geometry" />
        </mxCell>
        <mxCell id="88983EZOAUHpk7LaGvqL-8" value="" style="endArrow=classic;html=1;rounded=0;fontSize=20;fontColor=#009900;" parent="1" source="88983EZOAUHpk7LaGvqL-4" target="88983EZOAUHpk7LaGvqL-6" edge="1">
          <mxGeometry width="50" height="50" relative="1" as="geometry">
            <mxPoint x="297.37" y="410" as="sourcePoint" />
            <mxPoint x="347.37" y="360" as="targetPoint" />
          </mxGeometry>
        </mxCell>
        <mxCell id="88983EZOAUHpk7LaGvqL-11" value="&lt;font color=&quot;#ff9999&quot;&gt;Servidor&lt;/font&gt;" style="text;html=1;strokeColor=none;fillColor=none;align=center;verticalAlign=middle;whiteSpace=wrap;rounded=0;fontSize=20;fontColor=#009900;" parent="1" vertex="1">
          <mxGeometry x="80.01" y="100" width="130" height="40" as="geometry" />
        </mxCell>
        <mxCell id="r-MxsmEUI5-oT3r44p7l-14" style="edgeStyle=orthogonalEdgeStyle;rounded=0;orthogonalLoop=1;jettySize=auto;html=1;" edge="1" parent="1" source="r-MxsmEUI5-oT3r44p7l-9" target="88983EZOAUHpk7LaGvqL-26">
          <mxGeometry relative="1" as="geometry" />
        </mxCell>
        <mxCell id="r-MxsmEUI5-oT3r44p7l-79" style="edgeStyle=orthogonalEdgeStyle;rounded=0;orthogonalLoop=1;jettySize=auto;html=1;" edge="1" parent="1" source="r-MxsmEUI5-oT3r44p7l-9" target="r-MxsmEUI5-oT3r44p7l-44">
          <mxGeometry relative="1" as="geometry" />
        </mxCell>
        <mxCell id="r-MxsmEUI5-oT3r44p7l-9" value="" style="verticalLabelPosition=bottom;html=1;verticalAlign=top;align=center;strokeColor=#d6b656;fillColor=#fff2cc;shape=mxgraph.azure.cloud_service_package_file;aspect=fixed;" vertex="1" parent="1">
          <mxGeometry x="119.38" y="400" width="55.25" height="65" as="geometry" />
        </mxCell>
        <mxCell id="r-MxsmEUI5-oT3r44p7l-82" style="edgeStyle=orthogonalEdgeStyle;rounded=0;orthogonalLoop=1;jettySize=auto;html=1;entryX=0;entryY=0.5;entryDx=0;entryDy=0;entryPerimeter=0;startArrow=classic;startFill=1;" edge="1" parent="1" source="88983EZOAUHpk7LaGvqL-26" target="r-MxsmEUI5-oT3r44p7l-75">
          <mxGeometry relative="1" as="geometry" />
        </mxCell>
        <mxCell id="88983EZOAUHpk7LaGvqL-26" value="" style="verticalLabelPosition=bottom;html=1;verticalAlign=top;strokeWidth=1;align=center;outlineConnect=0;dashed=0;outlineConnect=0;shape=mxgraph.aws3d.file;aspect=fixed;strokeColor=#292929;" parent="1" vertex="1">
          <mxGeometry x="133.9" y="560" width="26.18" height="60" as="geometry" />
        </mxCell>
        <mxCell id="r-MxsmEUI5-oT3r44p7l-18" value="&lt;font color=&quot;#000099&quot;&gt;Interfaces&lt;/font&gt;" style="text;html=1;strokeColor=none;fillColor=none;align=center;verticalAlign=middle;whiteSpace=wrap;rounded=0;fontSize=20;fontColor=#009900;" vertex="1" parent="1">
          <mxGeometry x="22.080000000000013" y="400" width="93.29" height="30" as="geometry" />
        </mxCell>
        <mxCell id="r-MxsmEUI5-oT3r44p7l-21" value="&lt;font color=&quot;#000099&quot;&gt;Parte 1&lt;br&gt;&lt;/font&gt;" style="text;html=1;strokeColor=none;fillColor=none;align=center;verticalAlign=middle;whiteSpace=wrap;rounded=0;fontSize=20;fontColor=#009900;" vertex="1" parent="1">
          <mxGeometry x="176.37" y="282.5" width="90" height="40" as="geometry" />
        </mxCell>
        <mxCell id="r-MxsmEUI5-oT3r44p7l-70" style="edgeStyle=orthogonalEdgeStyle;rounded=0;orthogonalLoop=1;jettySize=auto;html=1;entryX=0.464;entryY=0.123;entryDx=0;entryDy=0;entryPerimeter=0;" edge="1" parent="1" source="r-MxsmEUI5-oT3r44p7l-22" target="r-MxsmEUI5-oT3r44p7l-9">
          <mxGeometry relative="1" as="geometry" />
        </mxCell>
        <mxCell id="r-MxsmEUI5-oT3r44p7l-73" style="edgeStyle=orthogonalEdgeStyle;rounded=0;orthogonalLoop=1;jettySize=auto;html=1;" edge="1" parent="1" source="r-MxsmEUI5-oT3r44p7l-22" target="r-MxsmEUI5-oT3r44p7l-71">
          <mxGeometry relative="1" as="geometry" />
        </mxCell>
        <mxCell id="r-MxsmEUI5-oT3r44p7l-22" value="" style="verticalLabelPosition=bottom;html=1;verticalAlign=top;align=center;strokeColor=#b85450;fillColor=#f8cecc;shape=mxgraph.azure.cloud_service_package_file;aspect=fixed;" vertex="1" parent="1">
          <mxGeometry x="117.38" y="270" width="55.25" height="65" as="geometry" />
        </mxCell>
        <mxCell id="r-MxsmEUI5-oT3r44p7l-25" value="&lt;font color=&quot;#000099&quot;&gt;PECLServidor.java&lt;/font&gt;" style="text;html=1;strokeColor=none;fillColor=none;align=center;verticalAlign=middle;whiteSpace=wrap;rounded=0;fontSize=20;fontColor=#009900;" vertex="1" parent="1">
          <mxGeometry x="-307.29999999999995" y="640" width="173.4" height="50" as="geometry" />
        </mxCell>
        <mxCell id="r-MxsmEUI5-oT3r44p7l-81" style="edgeStyle=orthogonalEdgeStyle;rounded=0;orthogonalLoop=1;jettySize=auto;html=1;startArrow=classic;startFill=1;" edge="1" parent="1" source="r-MxsmEUI5-oT3r44p7l-29" target="88983EZOAUHpk7LaGvqL-26">
          <mxGeometry relative="1" as="geometry" />
        </mxCell>
        <mxCell id="r-MxsmEUI5-oT3r44p7l-29" value="" style="sketch=0;aspect=fixed;pointerEvents=1;shadow=0;dashed=0;html=1;strokeColor=none;labelPosition=center;verticalLabelPosition=bottom;verticalAlign=top;align=center;fillColor=#00188D;shape=mxgraph.mscae.enterprise.code_file" vertex="1" parent="1">
          <mxGeometry x="-50" y="560" width="58.8" height="60" as="geometry" />
        </mxCell>
        <mxCell id="r-MxsmEUI5-oT3r44p7l-30" value="&lt;font color=&quot;#000099&quot;&gt;VistaHormigaGUI.java&lt;/font&gt;" style="text;html=1;strokeColor=none;fillColor=none;align=center;verticalAlign=middle;whiteSpace=wrap;rounded=0;fontSize=20;fontColor=#009900;" vertex="1" parent="1">
          <mxGeometry x="28.69999999999999" y="645" width="232.62" height="40" as="geometry" />
        </mxCell>
        <mxCell id="r-MxsmEUI5-oT3r44p7l-44" value="" style="verticalLabelPosition=bottom;html=1;verticalAlign=top;strokeWidth=1;align=center;outlineConnect=0;dashed=0;outlineConnect=0;shape=mxgraph.aws3d.file;aspect=fixed;strokeColor=#292929;" vertex="1" parent="1">
          <mxGeometry x="662.82" y="560" width="26.18" height="60" as="geometry" />
        </mxCell>
        <mxCell id="r-MxsmEUI5-oT3r44p7l-45" value="&lt;font color=&quot;#000099&quot;&gt;Hormiga.java&lt;/font&gt;" style="text;html=1;strokeColor=none;fillColor=none;align=center;verticalAlign=middle;whiteSpace=wrap;rounded=0;fontSize=20;fontColor=#009900;" vertex="1" parent="1">
          <mxGeometry x="565.0000000000001" y="630" width="118.68" height="40" as="geometry" />
        </mxCell>
        <mxCell id="r-MxsmEUI5-oT3r44p7l-48" value="&lt;font color=&quot;#000099&quot;&gt;GUI.java&lt;/font&gt;" style="text;html=1;align=center;verticalAlign=middle;whiteSpace=wrap;rounded=0;fontSize=20;" vertex="1" parent="1">
          <mxGeometry x="-65.60000000000002" y="645" width="90" height="40" as="geometry" />
        </mxCell>
        <mxCell id="r-MxsmEUI5-oT3r44p7l-49" value="" style="sketch=0;aspect=fixed;pointerEvents=1;shadow=0;dashed=0;html=1;strokeColor=none;labelPosition=center;verticalLabelPosition=bottom;verticalAlign=top;align=center;fillColor=#00188D;shape=mxgraph.mscae.enterprise.code_file" vertex="1" parent="1">
          <mxGeometry x="596.2" y="732" width="58.8" height="60" as="geometry" />
        </mxCell>
        <mxCell id="r-MxsmEUI5-oT3r44p7l-50" value="" style="sketch=0;aspect=fixed;pointerEvents=1;shadow=0;dashed=0;html=1;strokeColor=none;labelPosition=center;verticalLabelPosition=bottom;verticalAlign=top;align=center;fillColor=#00188D;shape=mxgraph.mscae.enterprise.code_file" vertex="1" parent="1">
          <mxGeometry x="596.2" y="802" width="58.8" height="60" as="geometry" />
        </mxCell>
        <mxCell id="r-MxsmEUI5-oT3r44p7l-51" value="" style="sketch=0;aspect=fixed;pointerEvents=1;shadow=0;dashed=0;html=1;strokeColor=none;labelPosition=center;verticalLabelPosition=bottom;verticalAlign=top;align=center;fillColor=#00188D;shape=mxgraph.mscae.enterprise.code_file" vertex="1" parent="1">
          <mxGeometry x="596.2" y="872" width="58.8" height="60" as="geometry" />
        </mxCell>
        <mxCell id="r-MxsmEUI5-oT3r44p7l-55" value="&lt;font color=&quot;#000099&quot;&gt;HormigaObrera.java&lt;/font&gt;" style="text;html=1;strokeColor=none;fillColor=none;align=center;verticalAlign=middle;whiteSpace=wrap;rounded=0;fontSize=20;fontColor=#009900;" vertex="1" parent="1">
          <mxGeometry x="425" y="742" width="118.68" height="40" as="geometry" />
        </mxCell>
        <mxCell id="r-MxsmEUI5-oT3r44p7l-56" value="&lt;font color=&quot;#000099&quot;&gt;HormigaSoldado.java&lt;/font&gt;" style="text;html=1;strokeColor=none;fillColor=none;align=center;verticalAlign=middle;whiteSpace=wrap;rounded=0;fontSize=20;fontColor=#009900;" vertex="1" parent="1">
          <mxGeometry x="385.5" y="812" width="197.68" height="40" as="geometry" />
        </mxCell>
        <mxCell id="r-MxsmEUI5-oT3r44p7l-57" value="&lt;font color=&quot;#000099&quot;&gt;HormigaCria.java&lt;/font&gt;" style="text;html=1;strokeColor=none;fillColor=none;align=center;verticalAlign=middle;whiteSpace=wrap;rounded=0;fontSize=20;fontColor=#009900;" vertex="1" parent="1">
          <mxGeometry x="425" y="882" width="118.68" height="40" as="geometry" />
        </mxCell>
        <mxCell id="r-MxsmEUI5-oT3r44p7l-61" value="&lt;font color=&quot;#000099&quot;&gt;MODELO&lt;/font&gt;" style="text;html=1;strokeColor=none;fillColor=none;align=center;verticalAlign=middle;whiteSpace=wrap;rounded=0;fontSize=20;fontColor=#009900;" vertex="1" parent="1">
          <mxGeometry x="563.6800000000001" y="685" width="120" height="40" as="geometry" />
        </mxCell>
        <mxCell id="r-MxsmEUI5-oT3r44p7l-64" value="" style="endArrow=none;html=1;rounded=0;entryX=0.985;entryY=1.1;entryDx=0;entryDy=0;entryPerimeter=0;" edge="1" parent="1">
          <mxGeometry width="50" height="50" relative="1" as="geometry">
            <mxPoint x="687" y="910" as="sourcePoint" />
            <mxPoint x="683.1500000000001" y="620" as="targetPoint" />
          </mxGeometry>
        </mxCell>
        <mxCell id="r-MxsmEUI5-oT3r44p7l-65" style="edgeStyle=orthogonalEdgeStyle;rounded=0;orthogonalLoop=1;jettySize=auto;html=1;entryX=1;entryY=0.5;entryDx=0;entryDy=0;entryPerimeter=0;" edge="1" parent="1" target="r-MxsmEUI5-oT3r44p7l-49">
          <mxGeometry relative="1" as="geometry">
            <mxPoint x="685" y="762" as="sourcePoint" />
            <mxPoint x="665" y="762" as="targetPoint" />
            <Array as="points">
              <mxPoint x="685" y="763" />
            </Array>
          </mxGeometry>
        </mxCell>
        <mxCell id="r-MxsmEUI5-oT3r44p7l-66" style="edgeStyle=orthogonalEdgeStyle;rounded=0;orthogonalLoop=1;jettySize=auto;html=1;entryX=1;entryY=0.5;entryDx=0;entryDy=0;entryPerimeter=0;" edge="1" parent="1">
          <mxGeometry relative="1" as="geometry">
            <mxPoint x="685" y="832" as="sourcePoint" />
            <mxPoint x="655" y="832" as="targetPoint" />
            <Array as="points">
              <mxPoint x="685" y="833" />
            </Array>
          </mxGeometry>
        </mxCell>
        <mxCell id="r-MxsmEUI5-oT3r44p7l-67" style="edgeStyle=orthogonalEdgeStyle;rounded=0;orthogonalLoop=1;jettySize=auto;html=1;entryX=1;entryY=0.5;entryDx=0;entryDy=0;entryPerimeter=0;" edge="1" parent="1">
          <mxGeometry relative="1" as="geometry">
            <mxPoint x="686" y="910" as="sourcePoint" />
            <mxPoint x="656" y="910" as="targetPoint" />
            <Array as="points">
              <mxPoint x="686" y="911" />
            </Array>
          </mxGeometry>
        </mxCell>
        <mxCell id="r-MxsmEUI5-oT3r44p7l-72" style="edgeStyle=orthogonalEdgeStyle;rounded=0;orthogonalLoop=1;jettySize=auto;html=1;" edge="1" parent="1">
          <mxGeometry relative="1" as="geometry">
            <mxPoint x="-190.19999999999982" y="590" as="sourcePoint" />
            <mxPoint x="-49" y="590" as="targetPoint" />
          </mxGeometry>
        </mxCell>
        <mxCell id="r-MxsmEUI5-oT3r44p7l-80" style="edgeStyle=orthogonalEdgeStyle;rounded=0;orthogonalLoop=1;jettySize=auto;html=1;entryX=0.381;entryY=0.983;entryDx=0;entryDy=0;entryPerimeter=0;" edge="1" parent="1" source="r-MxsmEUI5-oT3r44p7l-71" target="r-MxsmEUI5-oT3r44p7l-75">
          <mxGeometry relative="1" as="geometry">
            <mxPoint x="320" y="710" as="targetPoint" />
            <Array as="points">
              <mxPoint x="-221" y="710" />
              <mxPoint x="318" y="710" />
            </Array>
          </mxGeometry>
        </mxCell>
        <mxCell id="r-MxsmEUI5-oT3r44p7l-71" value="" style="sketch=0;aspect=fixed;pointerEvents=1;shadow=0;dashed=0;html=1;strokeColor=none;labelPosition=center;verticalLabelPosition=bottom;verticalAlign=top;align=center;fillColor=#00188D;shape=mxgraph.mscae.enterprise.code_file" vertex="1" parent="1">
          <mxGeometry x="-250" y="560" width="58.8" height="60" as="geometry" />
        </mxCell>
        <mxCell id="r-MxsmEUI5-oT3r44p7l-85" style="edgeStyle=orthogonalEdgeStyle;rounded=0;orthogonalLoop=1;jettySize=auto;html=1;" edge="1" parent="1" source="r-MxsmEUI5-oT3r44p7l-75" target="r-MxsmEUI5-oT3r44p7l-44">
          <mxGeometry relative="1" as="geometry" />
        </mxCell>
        <mxCell id="r-MxsmEUI5-oT3r44p7l-75" value="" style="sketch=0;aspect=fixed;pointerEvents=1;shadow=0;dashed=0;html=1;strokeColor=none;labelPosition=center;verticalLabelPosition=bottom;verticalAlign=top;align=center;fillColor=#00188D;shape=mxgraph.mscae.enterprise.code_file" vertex="1" parent="1">
          <mxGeometry x="295.6" y="560" width="58.8" height="60" as="geometry" />
        </mxCell>
        <mxCell id="r-MxsmEUI5-oT3r44p7l-86" value="&lt;font color=&quot;#000099&quot;&gt;HormigaController.java&lt;/font&gt;" style="text;html=1;strokeColor=none;fillColor=none;align=center;verticalAlign=middle;whiteSpace=wrap;rounded=0;fontSize=20;fontColor=#009900;" vertex="1" parent="1">
          <mxGeometry x="208.69" y="510" width="232.62" height="40" as="geometry" />
        </mxCell>
      </root>
    </mxGraphModel>
  </diagram>
</mxfile>
